<svg width="203" height="178" viewBox="0 0 203 178" fill="none" xmlns="http://www.w3.org/2000/svg">
<path d="M95.6628 2.24981C99.292 0.229287 103.708 0.229289 107.337 2.24981L124.693 11.9124C126.455 12.8934 128.436 13.4145 130.453 13.4275L150.821 13.5585C155.24 13.5869 159.286 16.042 161.352 19.9487L169.299 34.9774C170.358 36.98 171.962 38.6419 173.926 39.771L189.419 48.6783C193.72 51.151 196.056 56.0153 195.297 60.9179L193.013 75.6649C192.628 78.1527 193.035 80.6986 194.176 82.9424L201.049 96.4519C203.374 101.023 202.538 106.566 198.968 110.247L187.639 121.929C185.955 123.665 184.836 125.869 184.426 128.252L181.78 143.657C180.985 148.282 177.568 152.019 173.032 153.223L154.286 158.201C152.239 158.744 150.372 159.82 148.876 161.318L135.754 174.455C132.769 177.443 128.433 178.642 124.337 177.612L104.427 172.604C102.506 172.121 100.494 172.121 98.5728 172.604L78.6635 177.612C74.5673 178.642 70.2311 177.443 67.2461 174.455L54.1245 161.318C52.6276 159.82 50.7608 158.744 48.7137 158.201L29.9676 153.223C25.4322 152.019 22.0148 148.282 21.2202 143.657L18.5737 128.252C18.1643 125.869 17.0446 123.665 15.3613 121.929L4.03209 110.247C0.461894 106.566 -0.374342 101.023 1.95097 96.4519L8.82375 82.9424C9.96524 80.6986 10.3722 78.1527 9.98693 75.6649L7.70334 60.9179C6.94417 56.0153 9.2801 51.151 13.581 48.6783L29.0741 39.771C31.038 38.6419 32.6422 36.98 33.7012 34.9774L41.6483 19.9487C43.7142 16.042 47.7601 13.5869 52.1793 13.5585L72.5472 13.4275C74.5641 13.4145 76.5451 12.8934 78.3073 11.9124L95.6628 2.24981Z" fill="#EBFC56"/>
</svg>
